<svg width="28" height="28" viewBox="0 0 28 28" fill="none" xmlns="http://www.w3.org/2000/svg"><g clip-path="url(#prefix908ecd10clip0_39166_9475)"><path d="M27.9995 14C27.9995 6.26639 21.7304 0 14.0002 0C6.27014 0 0.000244141 6.26989 0.000244141 14C0.000244141 21.7301 6.26663 28 14.0002 28C21.7339 28 28.0002 21.7301 28.0002 14H27.9995Z" fill="#7F5FFF"/><path d="M28.3474 7.34037C26.0593 4.31969 19.9458 0.771845 14.3888 1.94465C12.9054 2.258 13.0807 2.98776 12.6271 3.67896C11.9983 4.63725 10.1287 5.03122 9.99272 5.47286C9.79994 6.10798 10.7211 7.19666 11.2475 7.39294C12.0867 7.70209 12.8192 6.33581 13.8623 6.16757C14.8977 5.99932 18.7491 6.35123 19.3912 7.37191C20.3467 8.43536 20.2374 10.1557 19.6653 10.3947C19.0513 10.6513 17.6331 9.22891 16.6601 9.33827C16.1126 9.40136 15.0449 10.1038 14.4133 10.0302C13.8693 9.96708 13.5146 8.80479 13.0407 8.4648C12.6089 8.15565 10.1659 8.68912 9.53706 8.97374C8.77155 9.31794 7.03443 11.7785 6.98816 12.6632C6.93208 13.6916 9.02742 15.7666 9.87355 15.9313C10.7617 16.1031 12.3341 15.2927 12.8893 15.6748C13.5525 16.1346 14.2794 23.9278 15.7291 23.9383C16.6489 23.9453 19.162 20.5125 19.5553 19.8451C20.1063 18.9043 19.7691 17.4056 19.9626 16.8896C20.2044 16.244 21.7319 15.3943 21.7915 14.7095C21.8476 14.0954 19.7908 12.3295 20.2998 11.9643C20.7036 11.6762 22.8732 12.7158 23.5784 12.2804C24.1806 11.9089 24.203 10.0379 24.9762 8.63444C25.1228 8.36806 25.4025 8.19911 25.7067 8.19911C26.4365 8.19911 27.2419 8.68632 28.1224 12.258C28.3117 12.9709 29.5763 11.3306 29.5763 11.3306L28.3467 7.34177L28.3474 7.34037Z" fill="#FEE14A"/><path d="M21.8971 19.1004C21.4757 18.9917 20.9878 20.0797 20.8476 20.4905C20.7215 20.8697 20.4719 21.9507 20.8476 22.0874C21.304 22.2521 21.9426 21.059 22.08 20.5956C22.1852 20.2339 22.2623 19.195 21.8978 19.1039" fill="#FEE14A"/><path d="M0.087001 15.5725C0.708102 17.4785 3.13782 16.91 3.55914 18.1845C4.03302 19.6201 2.40386 20.9892 3.41543 23.1659C1.3299 25.2122 -1.00098 19.9707 -1.00098 19.9707L0.087001 15.5753V15.5718V15.5725Z" fill="#FEE14A"/></g><defs><clipPath id="prefix908ecd10clip0_39166_9475"><rect width="28" height="28" rx="14" fill="white"/></clipPath></defs></svg>